<?xml version="1.0" standalone="no"?>
<!DOCTYPE svg PUBLIC "-//W3C//DTD SVG 20010904//EN"
 "http://www.w3.org/TR/2001/REC-SVG-20010904/DTD/svg10.dtd">
<svg version="1.0" xmlns="http://www.w3.org/2000/svg"
 width="182.000000pt" height="247.000000pt" viewBox="0 0 182.000000 247.000000"
 preserveAspectRatio="xMidYMid meet">

<g transform="translate(0.000000,247.000000) scale(0.100000,-0.100000)"
fill="#000000" stroke="none">
<path d="M903 2463 l907 -3 0 -651 0 -650 -52 6 c-45 5 -57 2 -78 -15 l-25
-21 32 6 c40 8 73 -2 73 -20 0 -8 11 -22 25 -31 l25 -16 0 -299 c0 -165 -1
-299 -2 -299 -2 0 -25 11 -52 25 -27 14 -61 25 -75 25 -24 -1 -24 -2 11 -20
48 -26 80 -72 85 -124 7 -56 -6 -77 -72 -126 -30 -22 -59 -49 -65 -60 -14 -26
3 -60 30 -60 11 0 20 -7 20 -15 0 -14 27 -19 103 -18 13 0 17 -9 17 -38 l0
-37 -277 0 -278 1 45 19 c60 25 86 66 93 145 5 64 0 73 -43 73 -13 0 -19 -11
-24 -42 -11 -66 -38 -88 -107 -88 -52 0 -60 3 -83 31 -18 22 -26 42 -26 70 l0
40 -42 -3 c-30 -2 -42 -7 -40 -17 2 -7 4 -43 5 -79 2 -61 4 -66 39 -96 20 -18
54 -37 75 -42 27 -8 -74 -11 -367 -12 -223 0 -489 -1 -592 -1 -118 -1 -188 -5
-188 -11 0 -7 310 -10 910 -10 l910 0 0 1235 0 1235 -912 -2 -913 -3 908 -2z
m257 -2353 c0 -5 -5 -10 -11 -10 -5 0 -7 5 -4 10 3 6 8 10 11 10 2 0 4 -4 4
-10z"/>
<path d="M1094 2369 c-2 -4 13 -9 33 -11 33 -3 38 -6 41 -31 6 -48 -3 -59 -34
-42 -14 7 -34 11 -43 8 -24 -9 -51 -34 -51 -50 0 -21 -17 -15 -38 12 -13 16
-23 22 -27 15 -9 -15 75 -97 108 -105 35 -9 75 16 83 53 11 52 11 52 39 38 36
-19 60 -10 80 27 13 25 14 38 6 60 -6 15 -14 28 -18 29 -30 5 -175 3 -179 -3z
m160 -25 c22 -21 20 -51 -4 -64 -43 -23 -83 17 -60 60 13 24 43 26 64 4z
m-112 -88 c20 -30 -5 -76 -42 -76 -24 0 -50 37 -43 59 14 38 64 49 85 17z"/>
<path d="M1416 2285 c-14 -22 -14 -24 9 -39 33 -22 31 -32 -10 -58 -40 -26
-43 -38 -15 -63 20 -18 22 -18 80 43 33 34 60 67 60 74 0 7 -25 25 -55 39
l-54 27 -15 -23z"/>
<path d="M1606 2255 c-4 -11 -13 -14 -30 -9 -22 5 -26 2 -36 -38 -6 -23 -13
-49 -16 -56 -2 -8 5 -16 18 -20 18 -4 14 -9 -29 -27 -36 -17 -54 -31 -66 -58
-22 -45 -22 -116 -1 -146 22 -31 90 -61 141 -61 117 0 163 159 68 238 l-35 28
20 57 c24 68 25 93 4 101 -24 9 -31 7 -38 -9z m31 -252 c12 -31 12 -38 -2 -59
-19 -29 -60 -47 -90 -40 -12 3 -30 21 -40 40 -16 29 -17 38 -6 64 26 62 111
59 138 -5z"/>
<path d="M402 2203 c-18 -31 -30 -63 -28 -70 7 -18 36 -16 51 4 11 15 14 15
36 0 30 -22 55 -22 63 0 5 11 1 22 -11 30 -36 25 -42 33 -36 50 6 14 -20 44
-36 43 -3 -1 -21 -26 -39 -57z"/>
<path d="M565 2219 c-4 -12 -4 -41 0 -65 5 -38 10 -44 30 -44 23 0 24 3 24 65
-1 61 -2 65 -24 65 -15 0 -26 -8 -30 -21z"/>
<path d="M679 2158 c-8 -14 -8 -23 -2 -25 6 -2 19 -10 29 -18 19 -15 19 -15
-2 -33 -11 -9 -30 -24 -43 -32 -20 -14 -21 -17 -8 -35 14 -18 17 -18 42 -5 15
8 45 37 66 64 l40 50 -38 18 c-20 10 -42 23 -47 28 -15 15 -24 12 -37 -12z"/>
<path d="M157 2133 c-10 -22 -8 -27 13 -44 l25 -19 -24 -21 c-13 -11 -31 -24
-40 -29 -13 -7 -14 -12 -1 -34 16 -32 27 -32 56 -5 l23 22 31 -27 c37 -30 55
-33 65 -8 7 14 9 13 14 -8 4 -16 15 -26 29 -28 18 -3 22 2 22 22 0 20 6 25 28
28 21 2 28 9 30 31 3 23 0 27 -22 27 -21 0 -25 5 -28 38 -3 32 -6 37 -28 37
-22 0 -26 -5 -32 -48 -8 -61 -13 -66 -40 -39 -20 19 -20 24 -8 47 7 14 11 26
9 27 -2 2 -28 15 -57 30 l-53 26 -12 -25z"/>
<path d="M830 2126 c-5 -14 -12 -48 -16 -77 l-7 -51 -43 4 c-50 4 -54 -1 -54
-72 l0 -48 58 -4 c32 -2 60 1 64 7 4 5 10 36 14 68 6 55 8 57 35 57 16 0 29 4
29 9 0 5 3 16 6 25 5 12 0 16 -21 16 -26 0 -27 2 -22 35 5 28 2 37 -14 45 -16
9 -21 7 -29 -14z m-36 -172 c22 -8 8 -34 -20 -34 -17 0 -24 6 -24 20 0 20 15
25 44 14z"/>
<path d="M1233 2133 c-8 -21 13 -121 37 -179 18 -40 23 -45 47 -42 25 3 28 7
25 34 -2 27 2 33 28 44 29 12 31 16 25 49 -9 46 -10 47 -39 32 -32 -18 -46 -7
-46 34 0 34 -13 45 -51 45 -11 0 -22 -7 -26 -17z"/>
<path d="M501 2091 c-6 -10 -12 -38 -13 -62 l-3 -44 65 0 c59 0 65 2 68 22 3
18 -2 21 -33 21 -45 0 -50 4 -35 32 6 12 9 28 6 36 -8 20 -44 17 -55 -5z"/>
<path d="M1032 2090 c-85 -52 -77 -188 14 -226 76 -32 159 10 184 93 16 53 -5
101 -59 131 -48 27 -96 28 -139 2z m92 -30 c40 -15 57 -49 46 -91 -18 -64 -88
-72 -125 -15 -21 32 -12 80 18 101 25 18 28 18 61 5z"/>
<path d="M1244 1886 c-19 -15 -18 -16 11 -73 20 -38 37 -59 51 -61 26 -4 114
73 114 99 0 33 -28 33 -59 0 -16 -17 -34 -31 -41 -31 -6 0 -19 18 -27 40 -18
45 -21 46 -49 26z"/>
<path d="M210 1881 c0 -6 5 -13 10 -16 6 -3 10 -2 10 3 0 6 17 8 39 5 23 -3
41 -1 45 6 5 8 -10 11 -48 11 -31 0 -56 -4 -56 -9z"/>
<path d="M346 1881 c-3 -5 3 -11 14 -14 11 -3 22 -2 25 2 2 4 18 6 35 3 18 -2
30 0 30 7 0 13 -96 15 -104 2z"/>
<path d="M467 1874 c3 -8 12 -13 20 -10 8 3 17 6 19 6 2 0 4 5 4 10 0 6 -11
10 -25 10 -18 0 -23 -4 -18 -16z"/>
<path d="M525 1880 c-4 -6 10 -10 34 -10 23 0 41 5 41 10 0 6 -15 10 -34 10
-19 0 -38 -4 -41 -10z"/>
<path d="M589 1555 c-12 -26 -19 -30 -47 -27 -37 4 -39 -1 -12 -35 15 -19 17
-30 10 -43 -18 -33 -12 -40 20 -28 24 8 35 7 48 -4 38 -33 44 -32 41 6 -3 31
1 40 25 55 l28 19 -36 12 c-26 8 -40 21 -50 43 l-12 32 -15 -30z"/>
<path d="M1134 1445 c-11 -8 -14 -14 -6 -15 8 0 5 -10 -9 -30 -12 -16 -27 -26
-33 -23 -8 5 -7 2 0 -8 6 -8 14 -29 16 -48 l5 -33 -18 23 c-23 29 -24 18 -4
-21 9 -17 34 -39 58 -51 23 -12 52 -30 64 -42 22 -19 24 -19 42 -3 10 10 21
26 24 36 5 18 3 18 -19 3 -23 -15 -27 -14 -64 11 -22 14 -40 30 -40 34 0 4 16
36 34 72 33 62 35 65 67 62 19 -2 41 -10 51 -19 14 -13 17 -12 23 7 9 29 4 33
-63 47 -77 16 -105 16 -128 -2z m43 -11 c-3 -3 -12 -4 -19 -1 -8 3 -5 6 6 6
11 1 17 -2 13 -5z"/>
<path d="M739 1392 c-61 -31 -96 -84 -85 -127 l6 -25 31 34 c62 72 181 87 240
30 l29 -28 0 28 c0 103 -109 146 -221 88z"/>
<path d="M1620 1197 c0 -11 -8 -17 -21 -17 -18 0 -19 -2 -9 -15 9 -10 9 -15 1
-15 -6 0 -11 -4 -11 -10 0 -13 37 -13 45 0 4 6 11 8 16 5 5 -4 14 6 19 20 14
37 13 50 -3 36 -10 -8 -17 -7 -25 1 -9 9 -12 8 -12 -5z"/>
<path d="M1146 1159 c-68 -17 -152 -68 -199 -123 -126 -146 -170 -285 -126
-402 21 -55 91 -144 115 -144 20 0 17 9 -16 59 -43 63 -54 112 -41 181 15 86
65 176 135 245 85 83 139 108 246 113 77 3 90 1 134 -23 36 -19 52 -23 60 -15
14 14 -38 61 -104 92 -51 25 -142 33 -204 17z"/>
<path d="M513 990 c-44 -10 -94 -50 -118 -93 -36 -68 4 -60 54 11 27 37 36 42
69 42 21 0 43 -5 50 -12 7 -7 28 -11 47 -10 28 2 42 -4 65 -27 27 -27 30 -36
30 -95 0 -70 14 -93 30 -51 30 78 -8 176 -80 211 -53 26 -102 34 -147 24z"/>
<path d="M1726 845 c-14 -11 -24 -12 -39 -3 -18 9 -19 8 -14 -20 4 -17 2 -34
-3 -37 -17 -10 -11 -25 9 -25 11 0 27 -10 35 -22 l15 -21 10 25 c5 15 19 29
30 33 27 8 27 22 0 30 -16 5 -19 12 -15 31 7 27 -1 30 -28 9z"/>
<path d="M475 810 c-3 -5 -1 -10 4 -10 6 0 11 5 11 10 0 6 -2 10 -4 10 -3 0
-8 -4 -11 -10z"/>
<path d="M600 760 c0 -5 5 -10 10 -10 6 0 10 5 10 10 0 6 -4 10 -10 10 -5 0
-10 -4 -10 -10z"/>
<path d="M335 741 c-11 -5 -52 -41 -92 -80 -39 -39 -79 -71 -90 -71 -14 0 -15
-2 -4 -9 10 -7 10 -10 1 -16 -7 -4 -16 -2 -20 5 -12 19 -60 -17 -77 -58 -17
-40 -7 -78 39 -152 25 -40 29 -58 31 -127 2 -83 6 -91 57 -126 38 -27 153 -20
130 8 -8 9 -6 14 5 19 8 3 15 0 15 -7 0 -9 19 -13 58 -14 31 -1 86 -5 122 -8
61 -7 68 -5 97 19 17 14 38 26 46 26 15 0 30 34 19 44 -3 3 -16 6 -29 6 -14 0
-23 6 -23 15 0 8 5 15 11 15 8 0 7 5 -2 16 -10 13 -10 17 2 26 11 7 11 11 2
15 -16 6 -17 34 -2 31 7 -2 15 9 20 25 6 21 4 27 -8 27 -13 0 -13 3 -3 15 9
11 15 13 20 5 5 -8 9 -7 13 4 4 9 3 15 -1 13 -4 -1 -7 3 -7 8 0 6 6 9 13 9 6
-1 12 4 12 11 0 7 -6 16 -12 19 -10 5 -10 7 0 12 17 8 15 24 -4 24 -9 0 -14 6
-11 13 2 6 10 11 16 10 18 -5 13 14 -14 46 -15 17 -46 37 -75 46 -38 12 -61
30 -95 70 -57 66 -107 87 -160 66z m65 -21 c0 -5 -9 -10 -21 -10 -11 0 -17 5
-14 10 3 6 13 10 21 10 8 0 14 -4 14 -10z m-50 -10 c0 -5 -4 -10 -10 -10 -5 0
-10 5 -10 10 0 6 5 10 10 10 6 0 10 -4 10 -10z m90 0 c0 -5 7 -10 15 -10 8 0
15 -4 15 -10 0 -5 -7 -10 -15 -10 -8 0 -15 5 -15 10 0 6 -7 10 -15 10 -8 0
-15 5 -15 10 0 6 7 10 15 10 8 0 15 -4 15 -10z m-120 -20 c0 -5 -7 -10 -15
-10 -8 0 -15 5 -15 10 0 6 7 10 15 10 8 0 15 -4 15 -10z m-32 -31 c-2 -6 -8
-10 -13 -10 -5 0 -11 4 -13 10 -2 6 4 11 13 11 9 0 15 -5 13 -11z m210 -8 c3
-8 -1 -12 -9 -9 -7 2 -15 10 -17 17 -3 8 1 12 9 9 7 -2 15 -10 17 -17z m-233
-31 c-3 -5 -10 -10 -16 -10 -5 0 -9 5 -9 10 0 6 7 10 16 10 8 0 12 -4 9 -10z
m255 0 c0 -5 -4 -10 -9 -10 -6 0 -13 5 -16 10 -3 6 1 10 9 10 9 0 16 -4 16
-10z m31 -23 c-1 -12 -15 -9 -19 4 -3 6 1 10 8 8 6 -3 11 -8 11 -12z m-316 -7
c-3 -5 -10 -10 -16 -10 -5 0 -9 5 -9 10 0 6 7 10 16 10 8 0 12 -4 9 -10z m-40
-10 c-3 -5 -10 -10 -16 -10 -5 0 -9 5 -9 10 0 6 7 10 16 10 8 0 12 -4 9 -10z
m405 0 c0 -5 -7 -10 -15 -10 -8 0 -15 5 -15 10 0 6 7 10 15 10 8 0 15 -4 15
-10z m31 -13 c-1 -12 -15 -9 -19 4 -3 6 1 10 8 8 6 -3 11 -8 11 -12z m-511
-15 c0 -13 -12 -22 -22 -16 -10 6 -1 24 13 24 5 0 9 -4 9 -8z m257 -16 c4 -8
17 -14 28 -13 18 2 20 -4 20 -53 l0 -55 -67 -3 c-66 -3 -86 7 -52 26 14 8 14
10 -1 22 -15 12 -19 11 -35 -9 -10 -14 -20 -19 -23 -14 -9 15 -54 22 -66 10
-11 -11 -31 -1 -31 17 0 20 39 66 56 66 10 0 15 -8 14 -22 -4 -41 1 -44 13 -9
15 43 34 50 47 17 5 -14 15 -26 21 -26 6 0 9 7 5 15 -10 26 5 45 35 45 15 0
32 -6 36 -14z m288 4 c3 -5 -1 -10 -9 -10 -9 0 -16 5 -16 10 0 6 4 10 9 10 6
0 13 -4 16 -10z m-85 -37 c0 -20 -5 -52 -12 -70 -19 -52 -68 -58 -68 -8 0 26
-15 41 -25 25 -10 -16 -35 -12 -35 6 0 23 39 74 56 74 8 0 14 -7 14 -15 0 -22
27 -18 33 5 3 11 12 20 21 20 12 0 16 -10 16 -37z m-494 0 c-10 -10 -19 5 -10
18 6 11 8 11 12 0 2 -7 1 -15 -2 -18z m4 -34 c0 -5 -4 -9 -10 -9 -5 0 -10 7
-10 16 0 8 5 12 10 9 6 -3 10 -10 10 -16z m0 -40 c0 -5 -4 -9 -10 -9 -5 0 -10
7 -10 16 0 8 5 12 10 9 6 -3 10 -10 10 -16z m17 -45 c-9 -9 -28 6 -21 18 4 6
10 6 17 -1 6 -6 8 -13 4 -17z m231 -11 c2 -8 -6 -13 -22 -13 -14 0 -26 -4 -26
-10 0 -5 11 -10 25 -10 27 0 33 -14 13 -26 -9 -6 -6 -10 10 -14 30 -7 33 -24
6 -28 -15 -2 -20 -8 -17 -21 6 -22 -21 -45 -43 -37 -11 4 -15 14 -12 31 4 19
1 25 -19 27 -34 4 -32 22 3 28 29 6 29 6 7 18 -22 12 -31 50 -16 66 12 11 86
2 91 -11z m103 -5 c4 -6 16 -7 27 -4 31 10 47 -51 25 -95 -14 -29 -17 -30 -71
-27 -33 2 -57 8 -60 16 -2 6 4 12 13 12 14 0 15 3 5 14 -6 8 -10 23 -8 33 1
10 -1 24 -5 31 -5 7 -4 12 2 12 6 0 10 3 10 8 -3 20 3 24 28 17 15 -3 31 -11
34 -17z m-305 -14 c0 -5 4 -17 9 -27 14 -32 -3 -29 -19 4 -9 18 -16 34 -16 36
0 9 25 -4 26 -13z m504 -9 c0 -8 -4 -15 -10 -15 -5 0 -10 7 -10 15 0 8 5 15
10 15 6 0 10 -7 10 -15z m-486 -70 c-4 -8 -10 -12 -15 -9 -11 6 -2 24 11 24 5
0 7 -7 4 -15z m-4 -41 c0 -8 -4 -12 -10 -9 -5 3 -10 10 -10 16 0 5 5 9 10 9 6
0 10 -7 10 -16z m10 -39 c0 -8 -4 -15 -10 -15 -5 0 -10 7 -10 15 0 8 5 15 10
15 6 0 10 -7 10 -15z m472 -25 c-13 -10 -22 -21 -20 -25 3 -5 -48 -35 -58 -35
-2 0 -4 5 -4 10 0 6 7 10 15 10 8 0 24 14 37 30 12 17 29 30 37 30 12 -1 10
-5 -7 -20z m-443 -25 c13 -14 22 -28 19 -30 -6 -6 -58 37 -58 48 0 14 15 6 39
-18z m270 -9 c8 -6 17 -10 20 -8 3 2 7 -1 9 -7 5 -14 0 -14 -34 4 -16 8 -39
15 -52 15 -13 0 -20 4 -17 10 7 11 53 3 74 -14z m-89 4 c0 -5 -7 -10 -15 -10
-8 0 -15 5 -15 10 0 6 7 10 15 10 8 0 15 -4 15 -10z m170 -20 c0 -5 -7 -10
-15 -10 -8 0 -15 5 -15 10 0 6 7 10 15 10 8 0 15 -4 15 -10z m-290 -10 c0 -5
-4 -10 -9 -10 -6 0 -13 5 -16 10 -3 6 1 10 9 10 9 0 16 -4 16 -10z m40 0 c0
-5 -7 -10 -15 -10 -8 0 -15 5 -15 10 0 6 7 10 15 10 8 0 15 -4 15 -10z"/>
<path d="M381 494 c0 -11 3 -14 6 -6 3 7 2 16 -1 19 -3 4 -6 -2 -5 -13z"/>
<path d="M365 450 c-3 -5 -1 -10 4 -10 6 0 11 5 11 10 0 6 -2 10 -4 10 -3 0
-8 -4 -11 -10z"/>
<path d="M512 470 c7 -11 17 -20 22 -20 5 0 1 9 -9 20 -10 11 -20 20 -22 20
-2 0 2 -9 9 -20z"/>
<path d="M435 280 c-3 -5 -1 -10 4 -10 6 0 11 5 11 10 0 6 -2 10 -4 10 -3 0
-8 -4 -11 -10z"/>
<path d="M1610 419 c0 -5 5 -7 10 -4 6 3 10 8 10 11 0 2 -4 4 -10 4 -5 0 -10
-5 -10 -11z"/>
<path d="M1705 340 c-3 -5 -1 -10 4 -10 6 0 11 5 11 10 0 6 -2 10 -4 10 -3 0
-8 -4 -11 -10z"/>
<path d="M976 312 c-4 -7 -14 -11 -22 -8 -9 3 -14 -1 -14 -12 0 -10 -5 -23
-12 -30 -9 -9 -7 -12 10 -12 13 0 22 -6 22 -15 0 -20 6 -19 31 6 14 14 17 24
11 32 -6 7 -12 21 -14 32 -3 15 -6 17 -12 7z"/>
</g>
</svg>
