<svg width="454" height="400" viewBox="0 0 454 400" fill="none" xmlns="http://www.w3.org/2000/svg">
<path d="M0 200C0 89.5431 89.5431 0 200 0H253.488C363.945 0 453.488 89.5431 453.488 200C453.488 310.457 363.945 400 253.488 400H200C89.5431 400 0 310.457 0 200Z" fill="#E6E6E6"/>
<path fill-rule="evenodd" clip-rule="evenodd" d="M294.77 160C294.77 193.137 264.315 220 226.747 220C189.179 220 158.724 193.137 158.724 160C158.724 126.863 189.179 100 226.747 100C264.315 100 294.77 126.863 294.77 160ZM272.096 160C272.096 182.091 251.792 200 226.747 200C201.701 200 181.398 182.091 181.398 160C181.398 137.909 201.701 120 226.747 120C251.792 120 272.096 137.909 272.096 160Z" fill="white"/>
<path d="M226.747 250C153.346 250 90.8056 288.284 66.9825 341.92C72.786 347.004 78.8995 351.812 85.2959 356.321C103.036 307.077 158.686 270 226.747 270C294.808 270 350.458 307.077 368.198 356.321C374.594 351.812 380.708 347.004 386.511 341.921C362.688 288.284 300.149 250 226.747 250Z" fill="white"/>
</svg>
